# xmcd
#
# Track frame offsets:
#	150
#	24184
#	39269
#	54900
#	70026
#	86325
#	103098
#	121004
#	133880
#	155502
#
# Disc length: 2307 seconds
#
# Revision: 3
# Processed by: cddbd v1.5.2PL0 Copyright (c) Steve Scherf et al.
# Submitted via: Jack! The Knife 17 Overdose
#
DISCID=7109010a
DTITLE=Pooh - Viva
DYEAR=1979
DGENRE=Pop
TTITLE0=Io Sono Vivo
TTITLE1=Notte A Sorpresa
TTITLE2=Una Donna Normale
TTITLE3=Tutto Adesso
TTITLE4=In Concerto
TTITLE5=Rubiamo Un'isola
TTITLE6=Così Ti Vorrei
TTITLE7=Susanna E Basta
TTITLE8=L'ultima Notte di Caccia
TTITLE9=Viva
EXTD=Pooh
EXTT0=Facchinetti, Negrini
EXTT1=Facchinetti, Negrini
EXTT2=Battaglia, Negrini
EXTT3=Facchinetti, Negrini
EXTT4=Facchinetti, Negrini
EXTT5=Facchinetti, D'Orazio
EXTT6=Facchinetti, D'Orazio
EXTT7=Canzian, Negrini
EXTT8=Facchinetti, Negrini
EXTT9=Roby Facchinetti
PLAYORDER=
